<svg xmlns="http://www.w3.org/2000/svg" id="Layer_1" viewBox="0 0 16 16"><path fill="#f15743" d="M12.5 15.021l-1.768-1.768.707-.707 1.061 1.061 1.061-1.061.707.707z"/><path fill="#f15743" d="M14.268 13.253l-.707-.707A1.49 1.49 0 0 0 14 11.485c0-.4-.156-.777-.439-1.061-.566-.566-1.555-.566-2.121 0-.284.284-.44.661-.44 1.061 0 .401.156.777.439 1.061l-.707.707A2.484 2.484 0 0 1 10 11.485c0-.667.26-1.295.732-1.768.943-.945 2.592-.945 3.535 0 .473.473.733 1.101.733 1.768 0 .668-.26 1.296-.732 1.768z"/><circle cx="12.5" cy="11.515" r=".5" fill="#f15743"/><path fill="#f15743" d="M3.5 7.021L1.732 5.253l.707-.707L3.5 5.607l1.061-1.061.707.707z"/><path fill="#f15743" d="M5.268 5.253l-.707-.707a1.501 1.501 0 1 0-2.121 0l-.708.707c-.975-.975-.975-2.561 0-3.536s2.561-.975 3.535 0 .975 2.562.001 3.536z"/><circle cx="3.5" cy="3.515" r=".5" fill="#f15743"/><path fill="#2c4355" d="M11 15.015H1v-3h7v-1H1v-3h8v-4h4v3h1v-4H8v4H5v-1h2v-4h8v6h-3v-3h-2v4H2v1h7v3H2v1h9z"/></svg>