<svg xmlns="http://www.w3.org/2000/svg" data-name="Layer 1" viewBox="0 0 512 512"><circle cx="393.411" cy="273.74" r="37.045"/><circle cx="118.568" cy="167.702" r="37.047" transform="rotate(-4.066 118.551 167.693)"/><path d="M468.3,202.126a105.55,105.55,0,0,0-149.725,0A112.391,112.391,0,0,0,286.125,273.6c-1.805,25.265,6.2,51.412,22.581,73.695l32.857,43.89c-16.83-5.162-27.5-1.681-36.075,1.117-7.695,2.515-13.255,4.329-24.084.987-11-3.394-15.214-8.494-20.546-14.952-5.949-7.2-13.354-16.171-30.072-21.328-16.894-5.211-27.59-1.718-36.183,1.088-7.7,2.511-13.254,4.326-24.081.987-11-3.394-15.213-8.494-20.546-14.951-3.5-4.244-7.53-9.094-13.649-13.422l67.017-89.523c16.333-22.214,24.335-48.362,22.531-73.61a112.4,112.4,0,0,0-32.448-71.488,105.552,105.552,0,0,0-149.725,0A112.391,112.391,0,0,0,11.255,167.56c-1.805,25.265,6.2,51.413,22.581,73.7l68.481,91.478a20.268,20.268,0,0,0,6.785,5.807,9.949,9.949,0,0,0,4.906,3.373c11,3.394,15.213,8.494,20.546,14.952,5.949,7.2,13.354,16.171,30.072,21.328,16.894,5.213,27.59,1.72,36.184-1.087,7.694-2.514,13.254-4.328,24.08-.988,11,3.394,15.214,8.494,20.546,14.952,5.949,7.2,13.354,16.171,30.072,21.328,16.9,5.212,27.592,1.721,36.187-1.086,7.695-2.512,13.255-4.326,24.083-.987,11,3.395,15.217,8.5,20.55,14.953,5.95,7.2,13.356,16.172,30.076,21.329a9.847,9.847,0,0,0,5.125.2c.629.058,1.263.1,1.9.1h0a20.123,20.123,0,0,0,16.247-8.133l68.533-91.548c16.333-22.214,24.335-48.361,22.531-73.609A112.389,112.389,0,0,0,468.3,202.126ZM118.564,224.747a56.85,56.85,0,1,1,40.4-16.65A56.713,56.713,0,0,1,118.564,224.747ZM433.83,314.133a57.327,57.327,0,1,1,16.651-40.4A56.713,56.713,0,0,1,433.83,314.133Z"/></svg>