<svg xmlns="http://www.w3.org/2000/svg" enable-background="new 0 0 50 50" viewBox="0 0 50 50"><circle cx="25" cy="16.8" r="4" fill="#555"/><path fill="#555" d="M30.1,11.8c-1.4-1.4-3.2-2.1-5.1-2.1s-3.7,0.7-5.1,2.1c-0.2,0.2-0.5,0.2-0.7,0s-0.2-0.5,0-0.7
				c1.5-1.5,3.6-2.4,5.8-2.4s4.2,0.8,5.8,2.4c0.2,0.2,0.2,0.5,0,0.7C30.6,12,30.3,12,30.1,11.8z"/><path fill="#555" d="M32.9,9C30.8,6.9,28,5.7,25,5.7S19.2,6.9,17.1,9c-0.2,0.2-0.5,0.2-0.7,0s-0.2-0.5,0-0.7
				C18.7,6,21.8,4.7,25,4.7s6.3,1.3,8.6,3.5c0.2,0.2,0.2,0.5,0,0.7C33.4,9.2,33.1,9.2,32.9,9z"/><path fill="#555" d="M35.3,6.5c-5.7-5.7-14.9-5.7-20.6,0c-0.2,0.2-0.5,0.2-0.7,0S13.8,6,14,5.8c6.1-6.1,16-6.1,22,0
				c0.2,0.2,0.2,0.5,0,0.7C35.8,6.7,35.5,6.7,35.3,6.5z"/><rect width="27.3" height="14.7" x="10.6" y="17" fill="#747474"/><path fill="#747474" d="M43.7 48.7c-3.3.8-6.7-3.6-8.7-8.8-1.1-2.9-2.8-5.5-5-7.7-2.2-2.3-3.4-5.5-3-9 .7-4.8 4.6-8.7 9.5-9.2 6.5-.7 12 4.4 12 10.7 0 1.1-.2 2.1-.4 3.1-.9 3-1 6.1-.6 9.2C48 42.6 46.8 47.9 43.7 48.7zM6.3 48.7c3.3.8 6.7-3.6 8.7-8.8 1.1-2.9 2.8-5.5 5-7.7 2.2-2.3 3.4-5.5 3-9-.7-4.8-4.6-8.7-9.5-9.2-6.5-.7-12 4.4-12 10.7 0 1.1.2 2.1.4 3.1.9 3 1 6.1.6 9.2C2 42.6 3.2 47.9 6.3 48.7z"/><circle cx="38.3" cy="19.3" r="1.9" fill="#FFD45A"/><circle cx="38.3" cy="29.4" r="1.9" fill="#4FB7E4"/><circle cx="43.4" cy="24.3" r="1.9" fill="#E46047"/><circle cx="33.2" cy="24.3" r="1.9" fill="#D7DADC"/><rect width="3.6" height="12.1" x="9.9" y="18.4" fill="#646464"/><rect width="12.1" height="3.6" x="5.6" y="22.6" fill="#646464"/><path fill="#D7DADC" d="M8.4 24.9H7.2c-.3 0-.5-.2-.5-.5s.2-.5.5-.5h1.2c.3 0 .5.2.5.5S8.7 24.9 8.4 24.9zM16.1 24.9h-1.2c-.3 0-.5-.2-.5-.5s.2-.5.5-.5h1.2c.3 0 .5.2.5.5S16.4 24.9 16.1 24.9z"/><g><path fill="#D7DADC" d="M11.7 21.7c-.3 0-.5-.2-.5-.5V20c0-.3.2-.5.5-.5s.5.2.5.5v1.2C12.2 21.5 11.9 21.7 11.7 21.7zM11.7 29.4c-.3 0-.5-.2-.5-.5v-1.2c0-.3.2-.5.5-.5s.5.2.5.5v1.2C12.2 29.2 11.9 29.4 11.7 29.4z"/></g><g><circle cx="18.3" cy="33.7" r="4.8" fill="#646464"/></g><g><circle cx="18.3" cy="33.7" r="2.4" fill="#E46047"/></g><g><circle cx="31.3" cy="33.7" r="4.8" fill="#646464"/></g><g><circle cx="31.3" cy="33.7" r="2.4" fill="#DBDF2B"/></g></svg>